<svg width="972pt" height="884pt" viewBox="0.00 0.00 972.00 884.00" xmlns="http://www.w3.org/2000/svg" xmlns:xlink="http://www.w3.org/1999/xlink">
<g id="graph0" class="graph" transform="scale(1 1) rotate(0) translate(144 740)">
<polygon fill="#ffffff" stroke="transparent" points="-144,144 -144,-740 828,-740 828,144 -144,144"/>
<!-- node_10478539058021569805 -->
<g id="10478539058021569805" class="node Collapsed ConfiguredTarget">

<g id="a_10478539058021569805"><a>
<path fill="#efefef" stroke="#efefef" stroke-width=".2" d="M321,-596C321,-596 129,-596 129,-596 123,-596 117,-590 117,-584 117,-584 117,-565 117,-565 117,-559 123,-553 129,-553 129,-553 321,-553 321,-553 327,-553 333,-559 333,-565 333,-565 333,-584 333,-584 333,-590 327,-596 321,-596" class="Selectable"/>
<text text-anchor="middle" x="225" y="-578.3" font-family="Times,serif" font-size="14.00" fill="#000000" class="NodeTitle">oci_tarball</text>
<text text-anchor="middle" x="225" y="-563.3" font-family="Times,serif" font-size="14.00" fill="#000000" class="NodeDetail">//docker:tarball</text>
</a>
</g>
</g>
<!-- node_15433327206918600430 -->
<g id="15433327206918600430" class="node Collapsed ConfiguredTarget">

<g id="a_15433327206918600430"><a>
<path fill="#efefef" stroke="#efefef" stroke-width=".2" d="M321,-517C321,-517 129,-517 129,-517 123,-517 117,-511 117,-505 117,-505 117,-486 117,-486 117,-480 123,-474 129,-474 129,-474 321,-474 321,-474 327,-474 333,-480 333,-486 333,-486 333,-505 333,-505 333,-511 327,-517 321,-517" class="Selectable"/>
<text text-anchor="middle" x="225" y="-499.3" font-family="Times,serif" font-size="14.00" fill="#000000" class="NodeTitle">oci_image</text>
<text text-anchor="middle" x="225" y="-484.3" font-family="Times,serif" font-size="14.00" fill="#000000" class="NodeDetail">//docker:image</text>
</a>
</g>
</g>
<!-- node_10478539058021569805&#45;&gt;node_15433327206918600430 -->
<g id="10478539058021569805_15433327206918600430" class="edge">

<path fill="none" stroke="#3f3f3f" stroke-width=".2" d="M225,-552.9129C225,-543.4205 225,-532.1771 225,-522.1673"/>
<polygon fill="#3f3f3f" stroke="#3f3f3f" stroke-width=".2" points="226.7501,-522.061 225,-517.061 223.2501,-522.061 226.7501,-522.061"/>
</g>
<!-- node_11146605943160587856 -->
<g id="11146605943160587856" class="node Collapsed ConfiguredTarget">

<g id="a_11146605943160587856"><a>
<path fill="#efefef" stroke="#efefef" stroke-width=".2" d="M204,-359C204,-359 12,-359 12,-359 6,-359 0,-353 0,-347 0,-347 0,-328 0,-328 0,-322 6,-316 12,-316 12,-316 204,-316 204,-316 210,-316 216,-322 216,-328 216,-328 216,-347 216,-347 216,-353 210,-359 204,-359" class="Selectable"/>
<text text-anchor="middle" x="108" y="-341.3" font-family="Times,serif" font-size="14.00" fill="#000000" class="NodeTitle">cc_binary</text>
<text text-anchor="middle" x="108" y="-326.3" font-family="Times,serif" font-size="14.00" fill="#000000" class="NodeDetail">//httpd:darkhttpd</text>
</a>
</g>
</g>
<!-- node_12068295827254711417 -->
<g id="12068295827254711417" class="node Collapsed ConfiguredTarget">

<g id="a_12068295827254711417"><a>
<path fill="#efefef" stroke="#efefef" stroke-width=".2" d="M438,-201C438,-201 246,-201 246,-201 240,-201 234,-195 234,-189 234,-189 234,-170 234,-170 234,-164 240,-158 246,-158 246,-158 438,-158 438,-158 444,-158 450,-164 450,-170 450,-170 450,-189 450,-189 450,-195 444,-201 438,-201" class="Selectable"/>
<text text-anchor="middle" x="342" y="-183.3" font-family="Times,serif" font-size="14.00" fill="#000000" class="NodeTitle">genrule</text>
<text text-anchor="middle" x="342" y="-168.3" font-family="Times,serif" font-size="14.00" fill="#000000" class="NodeDetail">//gif:frames</text>
</a>
</g>
</g>
<!-- node_14666369227447576292 -->
<g id="14666369227447576292" class="node Collapsed ConfiguredTarget">

<g id="a_14666369227447576292"><a>
<path fill="#efefef" stroke="#efefef" stroke-width=".2" d="M438,-122C438,-122 246,-122 246,-122 240,-122 234,-116 234,-110 234,-110 234,-91 234,-91 234,-85 240,-79 246,-79 246,-79 438,-79 438,-79 444,-79 450,-85 450,-91 450,-91 450,-110 450,-110 450,-116 444,-122 438,-122" class="Selectable"/>
<text text-anchor="middle" x="342" y="-104.3" font-family="Times,serif" font-size="14.00" fill="#000000" class="NodeTitle">go_binary</text>
<text text-anchor="middle" x="342" y="-89.3" font-family="Times,serif" font-size="14.00" fill="#000000" class="NodeDetail">//src:life</text>
</a>
</g>
</g>
<!-- node_12068295827254711417&#45;&gt;node_14666369227447576292 -->
<g id="12068295827254711417_14666369227447576292" class="edge">

<path fill="none" stroke="#3f3f3f" stroke-width=".2" d="M342,-157.9129C342,-148.4205 342,-137.1771 342,-127.1673"/>
<polygon fill="#3f3f3f" stroke="#3f3f3f" stroke-width=".2" points="343.7501,-127.061 342,-122.061 340.2501,-127.061 343.7501,-127.061"/>
</g>
<!-- node_2063810944779543361 -->
<g id="2063810944779543361" class="node Collapsed ConfiguredTarget">

<g id="a_2063810944779543361"><a>
<path fill="#efefef" stroke="#efefef" stroke-width=".2" d="M438,-43C438,-43 246,-43 246,-43 240,-43 234,-37 234,-31 234,-31 234,-12 234,-12 234,-6 240,0 246,0 246,0 438,0 438,0 444,0 450,-6 450,-12 450,-12 450,-31 450,-31 450,-37 444,-43 438,-43" class="Selectable"/>
<text text-anchor="middle" x="342" y="-25.3" font-family="Times,serif" font-size="14.00" fill="#000000" class="NodeTitle">go_library</text>
<text text-anchor="middle" x="342" y="-10.3" font-family="Times,serif" font-size="14.00" fill="#000000" class="NodeDetail">//src:life_lib</text>
</a>
</g>
</g>
<!-- node_14666369227447576292&#45;&gt;node_2063810944779543361 -->
<g id="14666369227447576292_2063810944779543361" class="edge">

<path fill="none" stroke="#3f3f3f" stroke-width=".2" d="M342,-78.9129C342,-69.4205 342,-58.1771 342,-48.1673"/>
<polygon fill="#3f3f3f" stroke="#3f3f3f" stroke-width=".2" points="343.7501,-48.061 342,-43.061 340.2501,-48.061 343.7501,-48.061"/>
</g>
<!-- node_6436567580857746698 -->
<g id="6436567580857746698" class="node Collapsed ConfiguredTarget">

<g id="a_6436567580857746698"><a>
<path fill="#efefef" stroke="#efefef" stroke-width=".2" d="M204,-438C204,-438 12,-438 12,-438 6,-438 0,-432 0,-426 0,-426 0,-407 0,-407 0,-401 6,-395 12,-395 12,-395 204,-395 204,-395 210,-395 216,-401 216,-407 216,-407 216,-426 216,-426 216,-432 210,-438 204,-438" class="Selectable"/>
<text text-anchor="middle" x="108" y="-420.3" font-family="Times,serif" font-size="14.00" fill="#000000" class="NodeTitle">genrule</text>
<text text-anchor="middle" x="108" y="-405.3" font-family="Times,serif" font-size="14.00" fill="#000000" class="NodeDetail">//httpd:closure</text>
</a>
</g>
</g>
<!-- node_15433327206918600430&#45;&gt;node_6436567580857746698 -->
<g id="15433327206918600430_6436567580857746698" class="edge">

<path fill="none" stroke="#3f3f3f" stroke-width=".2" d="M193.0292,-473.9129C177.9391,-463.7238 159.8611,-451.5173 144.2617,-440.9844"/>
<polygon fill="#3f3f3f" stroke="#3f3f3f" stroke-width=".2" points="145.0553,-439.4087 139.9321,-438.061 143.0967,-442.3094 145.0553,-439.4087"/>
</g>
<!-- node_659586755738362965 -->
<g id="659586755738362965" class="node Collapsed ConfiguredTarget">

<g id="a_659586755738362965"><a>
<path fill="#efefef" stroke="#efefef" stroke-width=".2" d="M438,-438C438,-438 246,-438 246,-438 240,-438 234,-432 234,-426 234,-426 234,-407 234,-407 234,-401 240,-395 246,-395 246,-395 438,-395 438,-395 444,-395 450,-401 450,-407 450,-407 450,-426 450,-426 450,-432 444,-438 438,-438" class="Selectable"/>
<text text-anchor="middle" x="342" y="-420.3" font-family="Times,serif" font-size="14.00" fill="#000000" class="NodeTitle">genrule</text>
<text text-anchor="middle" x="342" y="-405.3" font-family="Times,serif" font-size="14.00" fill="#000000" class="NodeDetail">//docker:overlay</text>
</a>
</g>
</g>
<!-- node_15433327206918600430&#45;&gt;node_659586755738362965 -->
<g id="15433327206918600430_659586755738362965" class="edge">

<path fill="none" stroke="#3f3f3f" stroke-width=".2" d="M256.9708,-473.9129C272.0609,-463.7238 290.1389,-451.5173 305.7383,-440.9844"/>
<polygon fill="#3f3f3f" stroke="#3f3f3f" stroke-width=".2" points="306.9033,-442.3094 310.0679,-438.061 304.9447,-439.4087 306.9033,-442.3094"/>
</g>
<!-- node_1788994238031754663 -->
<g id="1788994238031754663" class="node Collapsed ConfiguredTarget">

<g id="a_1788994238031754663"><a>
<path fill="#efefef" stroke="#efefef" stroke-width=".2" d="M204,-280C204,-280 12,-280 12,-280 6,-280 0,-274 0,-268 0,-268 0,-249 0,-249 0,-243 6,-237 12,-237 12,-237 204,-237 204,-237 210,-237 216,-243 216,-249 216,-249 216,-268 216,-268 216,-274 210,-280 204,-280" class="Selectable"/>
<text text-anchor="middle" x="108" y="-262.3" font-family="Times,serif" font-size="14.00" fill="#000000" class="NodeTitle">ConfiguredTarget</text>
<text text-anchor="middle" x="108" y="-247.3" font-family="Times,serif" font-size="14.00" fill="#000000" class="NodeDetail">//gif:frame1020.png</text>
</a>
</g>
</g>
<!-- node_1788994238031754663&#45;&gt;node_12068295827254711417 -->
<g id="1788994238031754663_12068295827254711417" class="edge">

<path fill="none" stroke="#3f3f3f" stroke-width=".2" d="M171.9415,-236.9129C203.2826,-226.332 241.0679,-213.5754 273.0539,-202.7767"/>
<polygon fill="#3f3f3f" stroke="#3f3f3f" stroke-width=".2" points="273.9583,-204.3185 278.1358,-201.061 272.8387,-201.0023 273.9583,-204.3185"/>
</g>
<!-- node_18387620505029348245 -->
<g id="18387620505029348245" class="node Collapsed ConfiguredTarget">

<g id="a_18387620505029348245"><a>
<path fill="#efefef" stroke="#efefef" stroke-width=".2" d="M438,-280C438,-280 246,-280 246,-280 240,-280 234,-274 234,-268 234,-268 234,-249 234,-249 234,-243 240,-237 246,-237 246,-237 438,-237 438,-237 444,-237 450,-243 450,-249 450,-249 450,-268 450,-268 450,-274 444,-280 438,-280" class="Selectable"/>
<text text-anchor="middle" x="342" y="-262.3" font-family="Times,serif" font-size="14.00" fill="#000000" class="NodeTitle">ConfiguredTarget</text>
<text text-anchor="middle" x="342" y="-247.3" font-family="Times,serif" font-size="14.00" fill="#000000" class="NodeDetail">//gif:frame879.png</text>
</a>
</g>
</g>
<!-- node_18387620505029348245&#45;&gt;node_12068295827254711417 -->
<g id="18387620505029348245_12068295827254711417" class="edge">

<path fill="none" stroke="#3f3f3f" stroke-width=".2" d="M342,-236.9129C342,-227.4205 342,-216.1771 342,-206.1673"/>
<polygon fill="#3f3f3f" stroke="#3f3f3f" stroke-width=".2" points="343.7501,-206.061 342,-201.061 340.2501,-206.061 343.7501,-206.061"/>
</g>
<!-- node_198114034402295623 -->
<g id="198114034402295623" class="node Collapsed ConfiguredTarget">

<g id="a_198114034402295623"><a>
<path fill="#efefef" stroke="#efefef" stroke-width=".2" d="M672,-280C672,-280 480,-280 480,-280 474,-280 468,-274 468,-268 468,-268 468,-249 468,-249 468,-243 474,-237 480,-237 480,-237 672,-237 672,-237 678,-237 684,-243 684,-249 684,-249 684,-268 684,-268 684,-274 678,-280 672,-280" class="Selectable"/>
<text text-anchor="middle" x="576" y="-262.3" font-family="Times,serif" font-size="14.00" fill="#000000" class="NodeTitle">ConfiguredTarget</text>
<text text-anchor="middle" x="576" y="-247.3" font-family="Times,serif" font-size="14.00" fill="#000000" class="NodeDetail">//gif:frame239.png</text>
</a>
</g>
</g>
<!-- node_198114034402295623&#45;&gt;node_12068295827254711417 -->
<g id="198114034402295623_12068295827254711417" class="edge">

<path fill="none" stroke="#3f3f3f" stroke-width=".2" d="M512.0585,-236.9129C480.7174,-226.332 442.9321,-213.5754 410.9461,-202.7767"/>
<polygon fill="#3f3f3f" stroke="#3f3f3f" stroke-width=".2" points="411.1613,-201.0023 405.8642,-201.061 410.0417,-204.3185 411.1613,-201.0023"/>
</g>
<!-- node_6436567580857746698&#45;&gt;node_11146605943160587856 -->
<g id="6436567580857746698_11146605943160587856" class="edge">

<path fill="none" stroke="#3f3f3f" stroke-width=".2" d="M108,-394.9129C108,-385.4205 108,-374.1771 108,-364.1673"/>
<polygon fill="#3f3f3f" stroke="#3f3f3f" stroke-width=".2" points="109.7501,-364.061 108,-359.061 106.2501,-364.061 109.7501,-364.061"/>
</g>
<!-- node_7325049956020632407 -->
<g id="7325049956020632407" class="node Collapsed ConfiguredTarget">

<g id="a_7325049956020632407"><a>
<path fill="#efefef" stroke="#efefef" stroke-width=".2" d="M438,-359C438,-359 246,-359 246,-359 240,-359 234,-353 234,-347 234,-347 234,-328 234,-328 234,-322 240,-316 246,-316 246,-316 438,-316 438,-316 444,-316 450,-322 450,-328 450,-328 450,-347 450,-347 450,-353 444,-359 438,-359" class="Selectable"/>
<text text-anchor="middle" x="342" y="-341.3" font-family="Times,serif" font-size="14.00" fill="#000000" class="NodeTitle">genrule</text>
<text text-anchor="middle" x="342" y="-326.3" font-family="Times,serif" font-size="14.00" fill="#000000" class="NodeDetail">//gif:animated</text>
</a>
</g>
</g>
<!-- node_659586755738362965&#45;&gt;node_7325049956020632407 -->
<g id="659586755738362965_7325049956020632407" class="edge">

<path fill="none" stroke="#3f3f3f" stroke-width=".2" d="M342,-394.9129C342,-385.4205 342,-374.1771 342,-364.1673"/>
<polygon fill="#3f3f3f" stroke="#3f3f3f" stroke-width=".2" points="343.7501,-364.061 342,-359.061 340.2501,-364.061 343.7501,-364.061"/>
</g>
<!-- node_7325049956020632407&#45;&gt;node_1788994238031754663 -->
<g id="7325049956020632407_1788994238031754663" class="edge">

<path fill="none" stroke="#3f3f3f" stroke-width=".2" d="M278.0585,-315.9129C246.7174,-305.332 208.9321,-292.5754 176.9461,-281.7767"/>
<polygon fill="#3f3f3f" stroke="#3f3f3f" stroke-width=".2" points="177.1613,-280.0023 171.8642,-280.061 176.0417,-283.3185 177.1613,-280.0023"/>
</g>
<!-- node_7325049956020632407&#45;&gt;node_18387620505029348245 -->
<g id="7325049956020632407_18387620505029348245" class="edge">

<path fill="none" stroke="#3f3f3f" stroke-width=".2" d="M342,-315.9129C342,-306.4205 342,-295.1771 342,-285.1673"/>
<polygon fill="#3f3f3f" stroke="#3f3f3f" stroke-width=".2" points="343.7501,-285.061 342,-280.061 340.2501,-285.061 343.7501,-285.061"/>
</g>
<!-- node_7325049956020632407&#45;&gt;node_198114034402295623 -->
<g id="7325049956020632407_198114034402295623" class="edge">

<path fill="none" stroke="#3f3f3f" stroke-width=".2" d="M405.9415,-315.9129C437.2826,-305.332 475.0679,-292.5754 507.0539,-281.7767"/>
<polygon fill="#3f3f3f" stroke="#3f3f3f" stroke-width=".2" points="507.9583,-283.3185 512.1358,-280.061 506.8387,-280.0023 507.9583,-283.3185"/>
</g>
</g>
<style xmlns="http://www.w3.org/1999/xhtml">
div.Import {
    align-items: center;
    color: hsl(0, 0%, 25%);
    display: flex;
    font-family: monospace;
    font-size: 14px;
    padding: 0px 30px;
    text-decoration: none;
}

div.Import:hover a {
    font-weight: bold;
}

div.Import a:active {
    color: hsl(0, 0%, 0%);
}

div.Import a {
    color: hsl(0, 0%, 25%);
    text-decoration: none;
}

div.Import span {
    padding: 10px 10px;
}

div.Import span.Tag {
    flex: 1 1;
    text-align: center;
    font-weight: bold;
}

div.Import input.Delete {
    width: 16px;
    height: 16px;
}

div.Button {
    text-align: right;
}

div.Button input {
    padding: 5px 10px;
    margin: 5px 0px;
}

div#Graph {
    text-align: center;
    margin-top: 128px;
}

div#SearchBoxOverlay {
    display: flex;
    height: auto;
    justify-content: center;
    left: 0;
    max-height: 100%;
    pointer-events: none;
    position: fixed;
    top: 0;
    width: 100%;
}

div#SearchBox {
    background-color: hsla(197, 17%, 92%, 90%);
    border-radius: 20px;
    border: 1px solid hsl(197, 23%, 40%);
    display: flex;
    flex-direction: column;
    margin: 30px 60px 70px;
    /*opacity: 95%;*/
    overflow: hidden;
    pointer-events: auto;
}

div#SearchBox.Expanded.Fade {
    opacity: 15%;
    transition: opacity 1000ms ease;
}

div#SearchBar {
    align-items: center;
    display: flex;
    padding: 30px 30px 0px;
}

input#PatternInput {
    border-radius: 5px;
    flex-grow: 1;
    font-size: 18px;
    min-width: 300px;
    padding: 5px 10px;
    text-align: center;
    text-overflow: ellipsis;
}

span#NodeCount {
    color: hsl(0, 0%, 31%);
    font-size: 18px;
    font-style: italic;
    padding-left: 20px;
    user-select: none;
}

div#SearchResults {
    margin: 15px 0px;
    overflow-y: auto;
}

div.ResultRow {
    color: hsl(0, 0%, 50%);
    cursor: auto;
    margin-bottom: 1px;
    overflow: hidden;
    padding: 2px 40px;
    text-overflow: ellipsis;
    user-select: none;
    white-space: nowrap;
}

div.ResultRow.Selected {
    background-color: hsl(199, 21%, 82%);
}

div.ResultRow &gt; span.NodeTitle {
    font-weight: bold;
    margin-right: 10px;
    overflow: ellipsis;
    white-space: nowrap;
}

div.ResultRow &gt; span.Context {
    color: hsl(0, 0%, 50%);
}

div.ResultRow &gt; span.Highlight {
    color: hsl(0, 0%, 0%);
    text-decoration: underline;
}

div.ResultRow:hover &gt; span.Context {
    color: hsl(0, 0%, 25%);
}

div.ResultRow                           span.NodeTitle { color: hsl(  0,  0%, 25%); }
div.ResultRow.ActionExecution           span.NodeTitle { color: hsl(318, 55%, 29%); }
div.ResultRow.Artifact                  span.NodeTitle { color: hsl( 71, 55%, 29%); }
div.ResultRow.ArtifactNestedSet         span.NodeTitle { color: hsl( 71, 55%, 29%); }
div.ResultRow.BuildConfiguration        span.NodeTitle { color: hsl(117, 55%, 29%); }
div.ResultRow.ClientEnvironmentVariable span.NodeTitle { color: hsl(163, 55%, 29%); }
div.ResultRow.ConfiguredTarget          span.NodeTitle { color: hsl(117, 55%, 29%); }
div.ResultRow.ContainingPackageLookup   span.NodeTitle { color: hsl(117, 55%, 29%); }
div.ResultRow.DirectoryListing          span.NodeTitle { color: hsl(271, 55%, 29%); }
div.ResultRow.DirectoryListingState     span.NodeTitle { color: hsl(271, 55%, 29%); }
div.ResultRow.File                      span.NodeTitle { color: hsl(271, 55%, 29%); }
div.ResultRow.FileState                 span.NodeTitle { color: hsl(271, 55%, 29%); }
div.ResultRow.Glob                      span.NodeTitle { color: hsl(233, 55%, 29%); }
div.ResultRow.PackageLookup             span.NodeTitle { color: hsl(117, 55%, 29%); }
div.ResultRow.SingleToolchainResolution span.NodeTitle { color: hsl(  7, 55%, 29%); }
div.ResultRow.SingleToolchainResolution span.NodeTitle { color: hsl(  7, 55%, 29%); }
div.ResultRow.BzlLoad                   span.NodeTitle { color: hsl(203, 55%, 29%); }
div.ResultRow.ToolchainResolution       span.NodeTitle { color: hsl(  7, 55%, 29%); }
div.ResultRow.TransitiveTarget          span.NodeTitle { color: hsl(117, 55%, 29%); }
div.ResultRow.TargetCompletion          span.NodeTitle { color: hsl(117, 55%, 29%); }

g.node                                  text.NodeTitle {  fill: hsl(  0,  0%, 25%); }
g.node.ActionExecution                  text.NodeTitle {  fill: hsl(318, 55%, 29%); }
g.node.Artifact                         text.NodeTitle {  fill: hsl( 71, 55%, 29%); }
g.node.ArtifactNestedSet                text.NodeTitle {  fill: hsl( 71, 55%, 29%); }
g.node.BuildConfiguration               text.NodeTitle {  fill: hsl(117, 55%, 29%); }
g.node.ClientEnvironmentVariable        text.NodeTitle {  fill: hsl(163, 55%, 29%); }
g.node.ConfiguredTarget                 text.NodeTitle {  fill: hsl(117, 55%, 29%); }
g.node.ContainingPackageLookup          text.NodeTitle {  fill: hsl(117, 55%, 29%); }
g.node.DirectoryListing                 text.NodeTitle {  fill: hsl(271, 55%, 29%); }
g.node.DirectoryListingState            text.NodeTitle {  fill: hsl(271, 55%, 29%); }
g.node.File                             text.NodeTitle {  fill: hsl(271, 55%, 29%); }
g.node.FileState                        text.NodeTitle {  fill: hsl(271, 55%, 29%); }
g.node.Glob                             text.NodeTitle {  fill: hsl(233, 55%, 29%); }
g.node.PackageLookup                    text.NodeTitle {  fill: hsl(117, 55%, 29%); }
g.node.SingleToolchainResolution        text.NodeTitle {  fill: hsl(  7, 55%, 29%); }
g.node.SingleToolchainResolution        text.NodeTitle {  fill: hsl(  7, 55%, 29%); }
g.node.BzlLoad                          text.NodeTitle {  fill: hsl(203, 55%, 29%); }
g.node.ToolchainResolution              text.NodeTitle {  fill: hsl(  7, 55%, 29%); }
g.node.TransitiveTarget                 text.NodeTitle {  fill: hsl(117, 55%, 29%); }
g.node.TargetCompletion                 text.NodeTitle {  fill: hsl(117, 55%, 29%); }

g.node {
    cursor: auto;
    user-select: none;
}

g.node text.NodeTitle {
    font-size: 14px;
    font-weight: bold;
}

g.node text.NodeDetail {
    font-size: 10px;
}

g.node path {
    fill: hsl(0, 0%, 94%);
    transition: fill 500ms ease-in-out;
}

g.node.Highlight path, g.node.Highlight ellipse, g.node.Collapsed.Highlight path {
    fill: hsl(49, 100%, 79%);
}

g.node ellipse {
    fill: hsl(0, 0%, 100%);
    stroke: hsl(0, 0%, 25%);
}

g.node.Collapsed path {
    fill: hsl(0, 0%, 100%);
    stroke: hsl(0, 0%, 100%);
}

g.node.Selected:hover path {
    fill: hsl(175, 100%, 95%);
}

g.node.Selected path {
    stroke: hsl(0, 0%, 25%);
    fill: hsl(0, 0%, 94%);
}

g.node.Unselected:hover path {
    fill: hsl(175, 100%, 95%);
}

g.node.Unselected path {
    stroke-dasharray: 5 2;
    stroke: hsl(0, 0%, 25%);
    fill: hsl(0, 0%, 100%);
}

g.edge text {
    cursor: auto;
    fill: hsl(0, 0%, 25%);
    font-size: 12px;
    user-select: none;
}

g.edge:hover text {
    fill: hsl(134.9, 100%, 57.3%)
    font-weight: bold;
}

g.edge.Animate path, g.edge:hover path {
    /*stroke: hsl(175, 100%, 50%);*/
    animation: dash 200ms linear;
    animation-iteration-count: infinite;
}

@keyframes dash {
    from {
        stroke-dashoffset: 5;
    }
    to {
        stroke-dashoffset: 0;
    }
}

div#Trade.Hidden {
    opacity: 0%;
}

div#Tray {
    align-items: center;
    border-radius: 10px;
    bottom: 8px;
    display: flex;
    justify-content: center;
    opacity: 90%;
    padding: 4px;
    position: fixed;
    right: 8px;

}

div#Tray div {
    color: hsl(0, 0%, 25%);
    opacity: 0%;
    transition: opacity 1000ms ease;
    border-radius: 8px;
    padding: 8px;
    display: flex;
    align-items: center;
    justify-content: center;
}

div#Tray div.Rendering {
    opacity: 90%;
}

div#Tray div.RenderDone {
    opacity: 90%;
}

div#Tray div.RenderFail {
    color: hsl(0, 86%, 37%);
    background-color: hsla(3, 81%, 48%, 10%);
    border: 1px solid hsl(0, 55.9%, 40%);
    opacity: 90%;
}

span#Status {
    cursor: default;
    font-size: 16px;
    font-style: italic;
    user-select: none;
    margin: 0px 8px;
}

div.RenderDone span#Status {
    color: hsl(0, 0%, 50%);
}

a#Save {
    display: flex;
    justify-content: center;
    align-items: center;
    text-decoration: none;
}

span#Icon {
    font-size: 24px;
    cursor: auto;
}

div.Rendering span#Icon {
    animation: spin 2s linear infinite;
}

@keyframes spin {
      0% { transform: rotate(  0deg); }
     35% { transform: rotate(  0deg); }
     40% { transform: rotate( 10deg); }
     50% { transform: rotate(180deg); }
     60% { transform: rotate(350deg); }
     65% { transform: rotate(360deg); }
    100% { transform: rotate(360deg); }
}
</style></svg>